HIERARCHY
ROOT Hips
{
	OFFSET 0.000000 0.000000 0.000000 
	CHANNELS 6 Xposition Yposition Zposition Zrotation Xrotation Yrotation
	JOINT Spine
	{
		OFFSET -0.000000 8.285670 0.000000 
		CHANNELS 3 Zrotation Xrotation Yrotation
		JOINT Spine1
		{
			OFFSET -0.000000 20.280901 0.000000 
			CHANNELS 3 Zrotation Xrotation Yrotation
			JOINT Neck
			{
				OFFSET -0.000000 22.301800 0.000000 
				CHANNELS 3 Zrotation Xrotation Yrotation
				JOINT Head
				{
					OFFSET -0.000000 15.661900 2.020890 
					CHANNELS 3 Zrotation Xrotation Yrotation
					End Site
					{
						OFFSET -0.000000 20.208887 0.000000 
					}
				}
			}
			JOINT LeftShoulder
			{
				OFFSET 3.887530 15.503099 -0.416373 
				CHANNELS 3 Zrotation Xrotation Yrotation
				JOINT LeftArm
				{
					OFFSET 20.767099 0.000000 0.000000 
					CHANNELS 3 Zrotation Xrotation Yrotation
					JOINT LeftForeArm
					{
						OFFSET 26.608500 0.000000 0.000000 
						CHANNELS 3 Zrotation Xrotation Yrotation
						JOINT LeftHand
						{
							OFFSET 25.563202 0.000000 0.000000 
							CHANNELS 3 Zrotation Xrotation Yrotation
							End Site
							{
								OFFSET 15.156667 0.000000 0.000000 
							}
						}
					}
				}
			}
			JOINT RightShoulder
			{
				OFFSET -4.190880 15.503099 -0.416373 
				CHANNELS 3 Zrotation Xrotation Yrotation
				JOINT RightArm
				{
					OFFSET -20.767099 0.000000 0.000000 
					CHANNELS 3 Zrotation Xrotation Yrotation
					JOINT RightForeArm
					{
						OFFSET -26.608500 0.000000 0.000000 
						CHANNELS 3 Zrotation Xrotation Yrotation
						JOINT RightHand
						{
							OFFSET -25.563202 0.000000 0.000000 
							CHANNELS 3 Zrotation Xrotation Yrotation
							End Site
							{
								OFFSET -15.156667 0.000000 0.000000 
							}
						}
					}
				}
			}
		}
	}
	JOINT LeftUpLeg
	{
		OFFSET 10.104500 0.000000 0.000000 
		CHANNELS 3 Zrotation Xrotation Yrotation
		JOINT LeftLeg
		{
			OFFSET -0.000000 -50.743301 0.000000 
			CHANNELS 3 Zrotation Xrotation Yrotation
			JOINT LeftFoot
			{
				OFFSET -0.000000 -35.579197 0.000000 
				CHANNELS 3 Zrotation Xrotation Yrotation
				JOINT LeftToeBase
				{
					OFFSET -0.000000 -6.567910 15.156700 
					CHANNELS 3 Zrotation Xrotation Yrotation
					End Site
					{
						OFFSET -0.000000 0.000000 4.041778 
					}
				}
			}
		}
	}
	JOINT RightUpLeg
	{
		OFFSET -10.104500 0.000000 0.000000 
		CHANNELS 3 Zrotation Xrotation Yrotation
		JOINT RightLeg
		{
			OFFSET -0.000000 -50.743301 0.000000 
			CHANNELS 3 Zrotation Xrotation Yrotation
			JOINT RightFoot
			{
				OFFSET -0.000000 -35.579197 0.000000 
				CHANNELS 3 Zrotation Xrotation Yrotation
				JOINT RightToeBase
				{
					OFFSET -0.000000 -6.567910 15.156700 
					CHANNELS 3 Zrotation Xrotation Yrotation
					End Site
					{
						OFFSET -0.000000 0.000000 4.041778 
					}
				}
			}
		}
	}
}
MOTION
Frames: 7
Frame Time: 0.010000
13.800607 90.441536 36.884296 5.934631 12.356170 -48.448627 1.178657 -11.880320 -2.423646 3.101910 8.440693 -2.775246 0.000000 0.000000 0.000000 0.000000 0.000000 0.000000 -2.559330 2.202569 -2.656631 -76.225235 36.512676 -16.426998 5.235020 -0.861509 -10.042256 -19.682575 0.752463 -6.643785 1.319477 0.762735 -11.589025 77.460365 24.867428 25.130526 -4.300708 6.672884 -0.339998 27.095842 4.756244 -7.927892 6.389760 -18.229998 -16.721388 -2.882010 14.220901 25.557316 8.039748 -17.415695 24.485519 0.000000 0.000000 0.000000 -8.466239 -9.848830 -11.859174 -0.330374 17.237415 -17.280588 -11.787644 -8.941126 6.409011 0.000000 0.000000 0.000000 
14.071078 90.493736 37.117798 6.192486 12.363745 -49.985958 1.223174 -11.892852 -2.403890 3.145021 8.466451 -2.764183 0.000000 0.000000 0.000000 0.000000 0.000000 0.000000 -2.506380 2.134476 -2.564356 -76.317856 36.798729 -16.258774 5.355994 -0.940219 -10.088167 -19.727331 0.686873 -6.629915 1.123056 0.197396 -10.874954 77.807045 25.249191 23.816650 -4.740095 6.185596 0.399130 27.082720 4.330287 -7.792299 6.378283 -18.022007 -16.500675 -2.811826 13.990566 26.242311 8.258512 -17.312672 24.805300 0.000000 0.000000 0.000000 -8.321762 -10.117488 -12.591603 0.004400 17.230106 -17.967653 -12.526450 -8.701536 6.133539 0.000000 0.000000 0.000000 
14.335170 90.543091 37.346031 6.450216 12.355922 -51.539120 1.274479 -11.906368 -2.380529 3.174071 8.499962 -2.749398 0.000000 0.000000 0.000000 0.000000 0.000000 0.000000 -2.433951 2.012913 -2.464772 -76.475479 37.076542 -16.024641 5.473997 -1.010931 -10.128449 -19.765919 0.628370 -6.616498 0.933758 -0.381859 -10.154901 78.191261 25.624037 22.471746 -5.182266 5.696793 1.146474 27.075918 3.906083 -7.667085 6.364641 -17.810047 -16.266455 -2.736800 13.765444 26.931938 8.469116 -17.209946 25.115566 0.000000 0.000000 0.000000 -8.180654 -10.382733 -13.326978 0.360978 17.285892 -18.637247 -13.083156 -8.490413 5.738659 0.000000 0.000000 0.000000 
14.592860 90.589638 37.568932 6.707150 12.332643 -53.107159 1.332909 -11.920558 -2.353607 3.188834 8.540762 -2.730942 0.000000 0.000000 0.000000 0.000000 0.000000 0.000000 -2.342971 1.841789 -2.357622 -76.694984 37.343571 -15.729280 5.587930 -1.073189 -10.162851 -19.797979 0.577609 -6.603465 0.752002 -0.974589 -9.429433 78.617783 25.979214 21.096512 -5.625829 5.212584 1.898764 27.074354 3.489680 -7.552923 6.348444 -17.594164 -16.019821 -2.657031 13.545377 27.627804 8.671114 -17.107468 25.414795 0.000000 0.000000 0.000000 -8.044593 -10.643817 -14.061982 0.842258 17.374647 -19.318380 -13.597608 -8.260283 5.019533 0.000000 0.000000 0.000000 
14.844148 90.633415 37.786419 6.962674 12.293903 -54.689137 1.398863 -11.935388 -2.323123 3.188995 8.588634 -2.708892 0.000000 0.000000 0.000000 0.000000 0.000000 0.000000 -2.235859 1.629513 -2.242421 -76.967255 37.596832 -15.383164 5.696530 -1.126679 -10.192023 -19.823244 0.534470 -6.590218 0.578391 -1.580086 -8.699071 79.090645 26.299452 19.692305 -6.069301 4.740307 2.652938 27.077181 3.088178 -7.450667 6.329290 -17.374578 -15.761897 -2.572636 13.330461 28.331434 8.863790 -17.005424 25.701630 0.000000 0.000000 0.000000 -7.915452 -10.899969 -14.793277 1.243865 17.544380 -19.948704 -13.611862 -8.060641 4.329237 0.000000 0.000000 0.000000 
15.089055 90.674446 37.998402 7.216156 12.239739 -56.284058 1.472616 -11.950435 -2.289137 3.174388 8.642860 -2.683213 0.000000 0.000000 0.000000 0.000000 0.000000 0.000000 -2.115251 1.386567 -2.118769 -77.280891 37.832954 -14.999513 5.798512 -1.171176 -10.216986 -19.841568 0.498877 -6.575913 0.413389 -2.197189 -7.964375 79.626152 26.570910 18.248468 -6.537266 4.286474 3.420300 27.097216 2.706995 -7.367128 6.306780 -17.151464 -15.493581 -2.483617 13.120644 29.044182 9.046505 -16.903831 25.974623 0.000000 0.000000 0.000000 -7.795079 -11.150571 -15.518063 1.654430 17.775249 -20.553646 -13.246624 -7.870057 3.496290 0.000000 0.000000 0.000000 
15.327590 90.712814 38.204762 7.466885 12.170244 -57.890965 1.554569 -11.965378 -2.251597 3.144818 8.702973 -2.653900 0.000000 0.000000 0.000000 0.000000 0.000000 0.000000 -1.984262 1.122942 -1.986424 -77.623985 38.049274 -14.591248 5.892816 -1.206701 -10.238640 -19.853020 0.470730 -6.559731 0.257734 -2.824762 -7.225944 80.202065 26.768049 16.788929 -6.981180 3.862258 4.177202 27.109512 2.358086 -7.295315 6.280695 -16.924995 -15.215897 -2.390232 12.915937 29.767256 9.218844 -16.802666 26.232592 0.000000 0.000000 0.000000 -7.685530 -11.394947 -16.233494 2.068157 18.067318 -21.129791 -12.475204 -7.700726 2.535263 0.000000 0.000000 0.000000 
